<?xml version="1.0" encoding="UTF-8"?>
<svg version="1.1" xmlns="http://www.w3.org/2000/svg" width="116" height="85">
    <path d="M0 0 C7.59 0 15.18 0 23 0 C23.99 5.28 24.98 10.56 26 16 C26.33 14.02 26.66 12.04 27 10 C31.29 10 35.58 10 40 10 C43 17.625 43 17.625 43 21 C43.66 21 44.32 21 45 21 C45.24492188 20.17242188 45.48984375 19.34484375 45.7421875 18.4921875 C47.19210089 14.46665157 49.07283543 10.86757202 51.125 7.125 C53.043125 3.598125 53.043125 3.598125 55 0 C62.59 0 70.18 0 78 0 C76.83551887 8.50966978 75.52811981 16.95570226 73.96557617 25.40014648 C73.43365297 28.31494882 73 31.02960608 73 34 C73.40839111 33.41508789 73.81678223 32.83017578 74.23754883 32.22753906 C76.0951553 29.56786226 77.95381666 26.90892434 79.8125 24.25 C80.45509766 23.32960938 81.09769531 22.40921875 81.75976562 21.4609375 C82.38173828 20.57148438 83.00371094 19.68203125 83.64453125 18.765625 C84.21534424 17.94868164 84.78615723 17.13173828 85.37426758 16.29003906 C85.91075928 15.53432617 86.44725098 14.77861328 87 14 C87.42627686 13.24686523 87.85255371 12.49373047 88.29174805 11.71777344 C90 10 90 10 93.13671875 9.609375 C94.30847656 9.65578125 95.48023437 9.7021875 96.6875 9.75 C98.45673828 9.80414062 98.45673828 9.80414062 100.26171875 9.859375 C101.16535156 9.90578125 102.06898437 9.9521875 103 10 C98.90007549 35.04345895 94.54202492 60.0330441 90 85 C85.71 85 81.42 85 77 85 C77.6972193 75.14184865 79.34987473 65.53251214 81.0625 55.8125 C81.34740906 54.17650257 81.6319173 52.54043529 81.91601562 50.90429688 C82.60606263 46.93537812 83.30151346 42.96744181 84 39 C83.47253174 39.72590332 82.94506348 40.45180664 82.40161133 41.19970703 C81.34623169 42.65159424 81.34623169 42.65159424 80.26953125 44.1328125 C79.53814941 45.13989258 78.80676758 46.14697266 78.05322266 47.18457031 C76.57294415 49.21436481 75.08120924 51.23240578 73.57421875 53.2421875 C68.49212015 60.33397727 66.49455548 66.406306 65 75 C59.72 75 54.44 75 49 75 C48.02016072 72.39608461 47.04110206 69.79188032 46.0625 67.1875 C45.78470703 66.44951172 45.50691406 65.71152344 45.22070312 64.95117188 C44.81948242 63.88286133 44.81948242 63.88286133 44.41015625 62.79296875 C44.04096069 61.81106567 44.04096069 61.81106567 43.66430664 60.80932617 C43.07962967 59.21688185 42.53644441 57.60933324 42 56 C41.57847656 56.71027344 41.15695313 57.42054687 40.72265625 58.15234375 C40.17480469 59.07144531 39.62695312 59.99054687 39.0625 60.9375 C38.51722656 61.85402344 37.97195312 62.77054688 37.41015625 63.71484375 C36 66 36 66 35 67 C33.33382885 67.04063832 31.66611905 67.042721 30 67 C29.95101562 67.71285156 29.90203125 68.42570312 29.8515625 69.16015625 C29.41871477 74.70508491 28.75971184 79.72086449 27 85 C22.71 85 18.42 85 14 85 C14.2165625 83.82824219 14.433125 82.65648438 14.65625 81.44921875 C14.93799299 79.8620666 15.21921478 78.27482187 15.5 76.6875 C15.64308594 75.92115234 15.78617188 75.15480469 15.93359375 74.36523438 C17.8737922 63.23219086 16.78818906 53.32672897 14.5 42.3125 C14.26152344 41.12205078 14.02304687 39.93160156 13.77734375 38.70507812 C13.19426553 35.80134858 12.60168317 32.89992087 12 30 C9.5591504 41.85370043 7.29473164 53.71942547 5.30761719 65.65844727 C5.15067383 66.58842529 4.99373047 67.51840332 4.83203125 68.4765625 C4.69514893 69.30236816 4.5582666 70.12817383 4.41723633 70.97900391 C4 73 4 73 3 75 C-2.28 75 -7.56 75 -13 75 C-8.89389333 49.95726154 -4.53722655 24.96816977 0 0 Z M56 27 C51.60186192 33.35693451 51.60186192 33.35693451 49.9765625 40.69921875 C50.46541018 42.96469944 50.9595407 44.92871527 52 47 C52.66 47.33 53.32 47.66 54 48 C54.53107314 45.25162151 55.05015881 42.50187625 55.5625 39.75 C55.71396484 38.97269531 55.86542969 38.19539063 56.02148438 37.39453125 C56.16005859 36.64042969 56.29863281 35.88632812 56.44140625 35.109375 C56.57232666 34.41811523 56.70324707 33.72685547 56.83813477 33.01464844 C57.01710362 30.78712058 56.65206197 29.12493038 56 27 Z " fill="#DE398E" transform="translate(13,0)"/>
</svg>
